<svg width="24" height="24" viewBox="0 0 30 30" fill="none" xmlns="http://www.w3.org/2000/svg">
  <path
    d="M15 8.75V13.75M17.5 26.25V22.5C17.5 21.837 17.2366 21.2011 16.7678 20.7322C16.2989 20.2634 15.663 20 15 20C14.337 20 13.7011 20.2634 13.2322 20.7322C12.7634 21.2011 12.5 21.837 12.5 22.5V26.25M17.5 11.25H12.5M22.5 13.75H25C25.663 13.75 26.2989 14.0134 26.7678 14.4822C27.2366 14.9511 27.5 15.587 27.5 16.25V23.75C27.5 24.413 27.2366 25.0489 26.7678 25.5178C26.2989 25.9866 25.663 26.25 25 26.25H5C4.33696 26.25 3.70107 25.9866 3.23223 25.5178C2.76339 25.0489 2.5 24.413 2.5 23.75V12.5C2.5 11.837 2.76339 11.2011 3.23223 10.7322C3.70107 10.2634 4.33696 10 5 10H7.5M22.5 26.25V6.25C22.5 5.58696 22.2366 4.95107 21.7678 4.48223C21.2989 4.01339 20.663 3.75 20 3.75H10C9.33696 3.75 8.70107 4.01339 8.23223 4.48223C7.76339 4.95107 7.5 5.58696 7.5 6.25V26.25"
    stroke="currentColor"
    stroke-width="2"
    stroke-linecap="round"
    stroke-linejoin="round"
  />
</svg>
